<svg width="23" height="23" viewBox="0 0 23 23" fill="none" xmlns="http://www.w3.org/2000/svg">
<path d="M18.8862 6.86279H3.77729C2.73423 6.86279 1.88867 7.70835 1.88867 8.75141V18.1945C1.88867 19.2375 2.73423 20.0831 3.77729 20.0831H18.8862C19.9293 20.0831 20.7748 19.2375 20.7748 18.1945V8.75141C20.7748 7.70835 19.9293 6.86279 18.8862 6.86279Z" stroke="white" stroke-width="1.61881" stroke-linecap="round" stroke-linejoin="round"/>
<path d="M15.1091 20.083V4.97406C15.1091 4.47317 14.9102 3.9928 14.556 3.63861C14.2018 3.28443 13.7214 3.08545 13.2205 3.08545H9.4433C8.94241 3.08545 8.46203 3.28443 8.10785 3.63861C7.75367 3.9928 7.55469 4.47317 7.55469 4.97406V20.083" stroke="white" stroke-width="1.61881" stroke-linecap="round" stroke-linejoin="round"/>
</svg>
