<svg width="52" height="52" viewBox="0 0 52 52" fill="none" xmlns="http://www.w3.org/2000/svg">
<path d="M32.8443 17.7778V34.8889M39.6888 17.7778V34.8889M27.711 22.9111H44.8221M27.711 29.7555H44.8221M27.711 34.8889L26.3353 35.5767C24.8578 36.3161 23.2158 36.6654 21.5654 36.5914C19.9149 36.5174 18.3108 36.0226 16.9054 35.154C15.5001 34.2853 14.3402 33.0717 13.5361 31.6285C12.7319 30.1853 12.3102 28.5604 12.311 26.9082V25.7584C12.3112 24.1066 12.7335 22.4823 13.5379 21.0396C14.3423 19.5969 15.502 18.3838 16.9071 17.5153C18.3121 16.6468 19.9158 16.1519 21.5659 16.0774C23.216 16.003 24.8577 16.3515 26.3353 17.0899L27.711 17.7778M5.46655 36.6V16.0666L25.9999 4.08887L46.5332 16.0666V36.6L25.9999 48.5778L5.46655 36.6Z" stroke="#474747" stroke-width="3.5"/>
</svg>
