<svg width="52" height="52" viewBox="0 0 52 52" fill="none" xmlns="http://www.w3.org/2000/svg">
<g clip-path="url(#clip0_24_1079)">
<path d="M6.77592 16.1843V34.9001H8.9656V21.3642C8.98372 20.5077 8.94729 19.651 8.85652 18.7991H8.93994C9.09875 19.2082 9.29927 19.6012 9.53348 19.9686L19.1585 34.8905H21.8406V16.1843H19.6606V29.3433C19.6349 30.2625 19.6862 31.1817 19.7937 32.0928H19.744C19.5042 31.6671 19.2507 31.2492 18.9836 30.84L9.61689 16.1859L6.77592 16.1843ZM26.6949 16.1843V34.9001H36.6455L36.6535 32.8452H28.9327V26.3531H35.6926V24.3816H28.9327V18.1655H36.1851V16.1859L26.6949 16.1843ZM38.3251 16.1843V18.1639H43.7054V34.8985H45.8951V18.1639H51.3349V16.1843H38.3251ZM1.39554 32.226C1.21139 32.2308 1.03007 32.2725 0.862282 32.3485C0.694494 32.4246 0.543635 32.5335 0.418603 32.6687C0.149646 32.9432 -0.000221469 33.3127 0.00151976 33.697C-0.000987536 33.9847 0.0824182 34.2666 0.24106 34.5066C0.399701 34.7466 0.62636 34.9338 0.89202 35.0442C1.15768 35.1547 1.45025 35.1833 1.73228 35.1265C2.01432 35.0697 2.27297 34.93 2.47514 34.7253C2.75106 34.4574 2.90987 34.082 2.90987 33.697C2.90987 33.312 2.75106 32.9366 2.47514 32.6687C2.34324 32.5284 2.18389 32.4167 2.007 32.3405C1.83012 32.2644 1.63946 32.2254 1.44687 32.226H1.39714H1.39554Z" fill="#474747"/>
</g>
<defs>
<clipPath id="clip0_24_1079">
<rect width="51.3333" height="51.3333" fill="white"/>
</clipPath>
</defs>
</svg>
