<svg width="52" height="52" viewBox="0 0 52 52" fill="none" xmlns="http://www.w3.org/2000/svg">
<path d="M9.68921 37.1347L22.8434 12.067H22.8006C23.6134 10.4842 25.5384 9.8853 27.0998 10.7195C27.6559 11.0189 28.1264 11.4895 28.4259 12.0456L30.6931 16.3447" stroke="#474747" stroke-width="2.33333" stroke-linecap="round" stroke-linejoin="round"/>
<path d="M33.0887 14.4626C34.3292 13.2006 36.3612 13.2006 37.6017 14.4412C38.0723 14.9118 38.3717 15.5106 38.4787 16.1737L41.687 35.659C41.9009 36.9851 41.2592 38.3112 40.0614 38.9529L27.0784 45.1556C26.0945 45.6904 24.9181 45.7118 23.9556 45.1556L11.0795 38.9101C9.9031 38.247 9.26144 36.9423 9.47532 35.6162L13.6675 9.86398C13.9242 8.11009 15.5712 6.91231 17.3037 7.19036C18.2875 7.34009 19.1645 7.96036 19.635 8.83731L22.2873 12.6018M9.77477 37.4129L33.1528 14.5695" stroke="#474747" stroke-width="2.33333" stroke-linecap="round" stroke-linejoin="round"/>
</svg>
