<svg width="25" height="27" viewBox="0 0 25 27" fill="none" xmlns="http://www.w3.org/2000/svg">
<path d="M9.25 22.7498C3 24.6248 3 19.6248 0.5 18.9998L9.25 22.7498ZM18 26.4998V21.6623C18.0469 21.0663 17.9664 20.4671 17.7638 19.9045C17.5612 19.342 17.2412 18.8291 16.825 18.3998C20.75 17.9623 24.875 16.4748 24.875 9.6498C24.8747 7.90458 24.2034 6.2263 23 4.9623C23.5698 3.43543 23.5295 1.74774 22.8875 0.2498C22.8875 0.2498 21.4125 -0.1877 18 2.0998C15.135 1.32333 12.115 1.32333 9.25 2.0998C5.8375 -0.1877 4.3625 0.2498 4.3625 0.2498C3.72047 1.74774 3.68018 3.43543 4.25 4.9623C3.03766 6.23567 2.36565 7.92913 2.375 9.6873C2.375 16.4623 6.5 17.9498 10.425 18.4373C10.0137 18.8623 9.69658 19.3691 9.49414 19.9247C9.29169 20.4803 9.20851 21.0724 9.25 21.6623V26.4998" fill="#4CAA51"/>
</svg>
