<svg width="35" height="39" viewBox="0 0 35 39" fill="none" xmlns="http://www.w3.org/2000/svg">
<path d="M0.37207 0.416626L0.521258 2.17158L3.32855 33.9036L3.42961 35.0073L4.48195 35.3073L17.2158 38.8669L17.6169 38.9664L18.0676 38.8669L30.8015 35.357L31.8538 35.057L31.9533 33.9533L34.8119 2.17158L34.9611 0.466355H33.2078L2.12703 0.416626H0.37207ZM3.88038 3.62496L31.4528 3.67469L28.846 32.5497L17.6666 35.6602L6.43743 32.5481L3.88038 3.62496ZM7.74161 8.43746L8.79395 20.419H22.5288L22.0781 25.5812L17.6666 26.7843H17.6169L13.2054 25.5812L12.9552 22.2734H8.94474L9.49497 28.6403L17.6185 30.8958H17.6666L25.7885 28.6403L26.8906 16.4583H12.4033L12.052 12.3981H27.2419L27.5916 8.43746H7.74161Z" fill="#474747"/>
</svg>
