<svg width="52" height="52" viewBox="0 0 52 52" fill="none" xmlns="http://www.w3.org/2000/svg">
<path d="M27.2709 24.0625C27.2709 22.7861 27.7779 21.562 28.6805 20.6595C29.583 19.757 30.8071 19.25 32.0834 19.25H36.8959C37.3214 19.25 37.7294 19.419 38.0302 19.7198C38.3311 20.0206 38.5001 20.4287 38.5001 20.8541C38.5001 21.2796 38.3311 21.6876 38.0302 21.9884C37.7294 22.2893 37.3214 22.4583 36.8959 22.4583H32.0834C31.658 22.4583 31.2499 22.6273 30.9491 22.9281C30.6483 23.229 30.4792 23.637 30.4792 24.0625V25.6666C30.4792 26.0921 30.6483 26.5001 30.9491 26.8009C31.2499 27.1018 31.658 27.2708 32.0834 27.2708H33.6876C34.9639 27.2708 36.188 27.7778 37.0905 28.6803C37.9931 29.5829 38.5001 30.8069 38.5001 32.0833V33.6875C38.5001 34.9638 37.9931 36.1879 37.0905 37.0904C36.188 37.9929 34.9639 38.5 33.6876 38.5H28.8751C28.4496 38.5 28.0416 38.3309 27.7408 38.0301C27.4399 37.7293 27.2709 37.3212 27.2709 36.8958C27.2709 36.4703 27.4399 36.0623 27.7408 35.7615C28.0416 35.4606 28.4496 35.2916 28.8751 35.2916H33.6876C34.113 35.2916 34.5211 35.1226 34.8219 34.8218C35.1227 34.5209 35.2917 34.1129 35.2917 33.6875V32.0833C35.2917 31.6578 35.1227 31.2498 34.8219 30.949C34.5211 30.6481 34.113 30.4791 33.6876 30.4791H32.0834C30.8071 30.4791 29.583 29.9721 28.6805 29.0696C27.7779 28.1671 27.2709 26.943 27.2709 25.6666V24.0625ZM25.6667 20.8541C25.6667 20.4287 25.4977 20.0206 25.1969 19.7198C24.8961 19.419 24.488 19.25 24.0626 19.25C23.6371 19.25 23.2291 19.419 22.9283 19.7198C22.6274 20.0206 22.4584 20.4287 22.4584 20.8541V33.6875C22.4584 34.1129 22.2894 34.5209 21.9886 34.8218C21.6877 35.1226 21.2797 35.2916 20.8542 35.2916H17.6459C17.2205 35.2916 16.8124 35.4606 16.5116 35.7615C16.2108 36.0623 16.0417 36.4703 16.0417 36.8958C16.0417 37.3212 16.2108 37.7293 16.5116 38.0301C16.8124 38.3309 17.2205 38.5 17.6459 38.5H20.8542C22.1306 38.5 23.3547 37.9929 24.2572 37.0904C25.1597 36.1879 25.6667 34.9638 25.6667 33.6875V20.8541ZM6.41675 14.4375C6.41675 12.3102 7.2618 10.2701 8.766 8.76587C10.2702 7.26168 12.3103 6.41663 14.4376 6.41663H36.8959C39.0232 6.41663 41.0633 7.26168 42.5675 8.76587C44.0717 10.2701 44.9167 12.3102 44.9167 14.4375V36.8958C44.9167 39.023 44.0717 41.0632 42.5675 42.5674C41.0633 44.0716 39.0232 44.9166 36.8959 44.9166H14.4376C12.3103 44.9166 10.2702 44.0716 8.766 42.5674C7.2618 41.0632 6.41675 39.023 6.41675 36.8958V14.4375ZM14.4376 9.62496C13.1612 9.62496 11.9371 10.132 11.0346 11.0345C10.1321 11.937 9.62508 13.1611 9.62508 14.4375V36.8958C9.62508 38.1721 10.1321 39.3962 11.0346 40.2987C11.9371 41.2013 13.1612 41.7083 14.4376 41.7083H36.8959C38.1723 41.7083 39.3963 41.2013 40.2989 40.2987C41.2014 39.3962 41.7084 38.1721 41.7084 36.8958V14.4375C41.7084 13.1611 41.2014 11.937 40.2989 11.0345C39.3963 10.132 38.1723 9.62496 36.8959 9.62496H14.4376Z" fill="#474747"/>
</svg>
