<svg width="38" height="38" viewBox="0 0 38 38" fill="none" xmlns="http://www.w3.org/2000/svg">
<path d="M13.3046 3.92007C12.3188 3.85357 11.3493 4.0309 10.4999 4.5209C9.36709 5.17424 8.61225 6.29074 8.20742 7.57757C7.80259 8.8609 7.70925 10.3426 7.85742 11.9607C7.87142 12.1241 7.90059 12.2956 7.92042 12.4624C7.76642 12.5277 7.60309 12.5884 7.45375 12.6584C5.97909 13.3386 4.74359 14.1599 3.83242 15.1527C2.92242 16.1467 2.33325 17.3577 2.33325 18.6667C2.33325 19.9746 2.92242 21.1867 3.83242 22.1807C4.74242 23.1736 5.97909 23.9949 7.45375 24.6751C7.60309 24.7451 7.76642 24.8057 7.92042 24.8711C7.90059 25.0379 7.87142 25.2094 7.85625 25.3727C7.70925 26.9909 7.80259 28.4714 8.20742 29.7571C8.61225 31.0427 9.36709 32.1581 10.4999 32.8126C11.6328 33.4659 12.9756 33.5627 14.2916 33.2711C15.6076 32.9794 16.9364 32.3179 18.2629 31.3811C18.3971 31.2877 18.5313 31.1769 18.6666 31.0766C18.8008 31.1769 18.9349 31.2866 19.0703 31.3811C20.3968 32.3179 21.7256 32.9794 23.0416 33.2711C24.3576 33.5627 25.7004 33.4671 26.8333 32.8126C27.9661 32.1592 28.7209 31.0427 29.1258 29.7559C29.5306 28.4726 29.6239 26.9909 29.4758 25.3727C29.4618 25.2094 29.4326 25.0379 29.4128 24.8711C29.5668 24.8057 29.7301 24.7451 29.8794 24.6751C31.3541 23.9949 32.5896 23.1736 33.5008 22.1807C34.4108 21.1867 34.9999 19.9757 34.9999 18.6667C34.9999 17.3589 34.4108 16.1467 33.5008 15.1527C32.5908 14.1599 31.3541 13.3386 29.8794 12.6584C29.7301 12.5884 29.5668 12.5277 29.4128 12.4624C29.4326 12.2956 29.4618 12.1241 29.4769 11.9607C29.6239 10.3426 29.5306 8.86207 29.1258 7.5764C28.7209 6.29074 27.9661 5.1754 26.8333 4.5209C25.7004 3.86757 24.3576 3.77074 23.0416 4.0624C21.7256 4.35407 20.3968 5.01557 19.0703 5.9524C18.9361 6.04574 18.8019 6.15657 18.6666 6.2569C18.5324 6.15657 18.3983 6.0469 18.2629 5.9524C16.9364 5.01557 15.6076 4.35407 14.2916 4.0624C13.9667 3.9896 13.6368 3.94162 13.3046 3.9189V3.92007ZM13.1529 6.24407C13.3513 6.25807 13.5624 6.29074 13.7876 6.34207C14.6696 6.5369 15.7254 7.03157 16.8396 7.80624C15.8614 8.73736 14.9546 9.7408 14.1271 10.8081C12.791 10.9903 11.4705 11.2726 10.1768 11.6527C10.0624 10.3017 10.1604 9.13974 10.4311 8.27874C10.7099 7.39674 11.1253 6.8554 11.6666 6.54157C12.0726 6.30824 12.5556 6.19857 13.1518 6.24407H13.1529ZM24.1814 6.24407C24.7764 6.19857 25.2606 6.30824 25.6666 6.54157C26.2079 6.85424 26.6233 7.39674 26.9021 8.27874C27.1728 9.13974 27.2708 10.3017 27.1564 11.6527C25.8627 11.2726 24.5422 10.9903 23.2061 10.8081C22.3785 9.7408 21.4718 8.73736 20.4936 7.80624C21.6078 7.03157 22.6636 6.5369 23.5456 6.34207C23.7708 6.2919 23.9819 6.25807 24.1814 6.24407ZM18.6666 9.28557C19.0761 9.66474 19.4856 10.0859 19.8951 10.5269C19.4858 10.5107 19.0762 10.5017 18.6666 10.5001C18.2524 10.5001 17.8453 10.5129 17.4381 10.5269C17.8464 10.0859 18.2571 9.66474 18.6666 9.28557ZM18.6666 12.8334C19.7924 12.8334 20.8833 12.8999 21.9321 13.0107C22.5755 13.8916 23.1717 14.806 23.7183 15.7501C24.2806 16.7242 24.7683 17.7019 25.1976 18.6667C24.7564 19.6644 24.2626 20.638 23.7183 21.5834C23.1717 22.5274 22.5755 23.4418 21.9321 24.3227C20.8821 24.4336 19.7924 24.5001 18.6666 24.5001C17.5408 24.5001 16.4499 24.4336 15.4011 24.3227C14.7577 23.4418 14.1615 22.5274 13.6149 21.5834C13.0526 20.6092 12.5649 19.6316 12.1356 18.6667C12.5638 17.7019 13.0526 16.7242 13.6149 15.7501C14.1773 14.7759 14.7804 13.8636 15.4011 13.0107C16.4857 12.894 17.5757 12.8348 18.6666 12.8334ZM12.2313 13.5334C12.0154 13.8776 11.8008 14.2241 11.5943 14.5834C11.3911 14.9392 11.1943 15.2986 11.0039 15.6614C10.8289 15.1059 10.6752 14.544 10.5431 13.9767C11.0763 13.8122 11.6456 13.6664 12.2313 13.5334ZM25.1019 13.5334C25.6876 13.6664 26.2569 13.8122 26.7901 13.9767C26.6664 14.5216 26.5066 15.0874 26.3293 15.6614C26.1389 15.2986 25.9421 14.9392 25.7389 14.5834C25.5328 14.2297 25.3205 13.8796 25.1019 13.5334ZM8.34625 14.8202C8.64492 16.0627 9.05675 17.3519 9.59109 18.6667C9.08024 19.9159 8.66412 21.2017 8.34625 22.5132C7.12009 21.9357 6.16225 21.2684 5.55325 20.6034C4.92909 19.9221 4.66659 19.2921 4.66659 18.6667C4.66659 18.0414 4.92909 17.4114 5.55325 16.7301C6.16225 16.0651 7.12009 15.3977 8.34625 14.8202ZM28.9869 14.8202C30.2131 15.3977 31.1709 16.0651 31.7799 16.7301C32.4041 17.4114 32.6666 18.0414 32.6666 18.6667C32.6666 19.2921 32.4041 19.9221 31.7799 20.6034C31.1709 21.2684 30.2131 21.9357 28.9869 22.5132C28.6691 21.2017 28.2529 19.9159 27.7421 18.6667C28.2526 17.4175 28.6687 16.1317 28.9869 14.8202ZM18.6666 15.1667C16.7474 15.1667 15.1666 16.7476 15.1666 18.6667C15.1666 20.5859 16.7474 22.1667 18.6666 22.1667C20.5858 22.1667 22.1666 20.5859 22.1666 18.6667C22.1666 16.7476 20.5858 15.1667 18.6666 15.1667ZM18.6666 17.5001C19.3246 17.5001 19.8333 18.0087 19.8333 18.6667C19.8333 19.3247 19.3246 19.8334 18.6666 19.8334C18.0086 19.8334 17.4999 19.3247 17.4999 18.6667C17.4999 18.0087 18.0086 17.5001 18.6666 17.5001ZM11.0039 21.6721C11.1941 22.0314 11.3866 22.3907 11.5931 22.7501C11.8008 23.1094 12.0154 23.4559 12.2313 23.8001C11.6456 23.6671 11.0763 23.5212 10.5431 23.3567C10.6668 22.8119 10.8266 22.2461 11.0039 21.6721ZM26.3293 21.6721C26.5066 22.2461 26.6676 22.8119 26.7901 23.3567C26.2569 23.5212 25.6876 23.6671 25.1019 23.8001C25.3178 23.4559 25.5324 23.1094 25.7401 22.7501C25.9466 22.3907 26.1391 22.0314 26.3293 21.6721ZM10.1768 25.6807C11.4018 26.0424 12.7236 26.3317 14.1271 26.5254C14.955 27.5923 15.8617 28.5958 16.8396 29.5272C15.7254 30.3019 14.6696 30.7966 13.7876 30.9914C12.8858 31.1921 12.2079 31.1034 11.6666 30.7919C11.1253 30.4792 10.7099 29.9367 10.4311 29.0547C10.1604 28.1937 10.0624 27.0317 10.1768 25.6807ZM27.1564 25.6807C27.2708 27.0317 27.1728 28.1937 26.9021 29.0547C26.6233 29.9367 26.2079 30.4781 25.6666 30.7919C25.1253 31.1034 24.4474 31.1921 23.5456 30.9914C22.6636 30.7966 21.6078 30.3019 20.4936 29.5272C21.4718 28.5961 22.3785 27.5927 23.2061 26.5254C24.5422 26.3432 25.8627 26.0608 27.1564 25.6807ZM17.4381 26.8066C17.8453 26.8206 18.2524 26.8334 18.6666 26.8334C19.0808 26.8334 19.4879 26.8206 19.8951 26.8066C19.4868 27.2476 19.0761 27.6687 18.6666 28.0479C18.2414 27.6499 17.8316 27.2358 17.4381 26.8066Z" fill="#474747"/>
</svg>
